<mxfile host="65bd71144e">
    <diagram id="FtccwwIwbRN8gL_Jw7Be" name="Page-1">
        <mxGraphModel dx="1555" dy="1067" grid="1" gridSize="10" guides="1" tooltips="1" connect="1" arrows="1" fold="1" page="1" pageScale="1" pageWidth="827" pageHeight="1169" math="0" shadow="0">
            <root>
                <mxCell id="0"/>
                <mxCell id="1" parent="0"/>
                <mxCell id="27" value="" style="whiteSpace=wrap;html=1;fontSize=24;fontColor=#ffffff;strokeColor=#A50040;strokeWidth=4;fillColor=none;" vertex="1" parent="1">
                    <mxGeometry x="-100" y="20" width="640" height="660" as="geometry"/>
                </mxCell>
                <mxCell id="21" value="" style="ellipse;whiteSpace=wrap;html=1;fontSize=24;fillColor=none;fontColor=#ffffff;strokeColor=#FF8000;strokeWidth=4;" vertex="1" parent="1">
                    <mxGeometry x="-80" y="60" width="570" height="425" as="geometry"/>
                </mxCell>
                <mxCell id="2" value="" style="whiteSpace=wrap;html=1;" vertex="1" parent="1">
                    <mxGeometry x="140" y="100" width="10" height="350" as="geometry"/>
                </mxCell>
                <mxCell id="3" value="" style="whiteSpace=wrap;html=1;" vertex="1" parent="1">
                    <mxGeometry x="260" y="100" width="10" height="360" as="geometry"/>
                </mxCell>
                <mxCell id="4" value="" style="whiteSpace=wrap;html=1;" vertex="1" parent="1">
                    <mxGeometry x="20" y="210" width="380" height="10" as="geometry"/>
                </mxCell>
                <mxCell id="5" value="" style="whiteSpace=wrap;html=1;" vertex="1" parent="1">
                    <mxGeometry x="20" y="330" width="380" height="10" as="geometry"/>
                </mxCell>
                <mxCell id="6" value="&lt;font style=&quot;font-size: 48px&quot;&gt;X&lt;/font&gt;" style="text;html=1;resizable=0;autosize=1;align=center;verticalAlign=middle;points=[];fillColor=none;strokeColor=none;rounded=0;" vertex="1" parent="1">
                    <mxGeometry x="310" y="150" width="50" height="30" as="geometry"/>
                </mxCell>
                <mxCell id="7" value="&lt;font style=&quot;font-size: 48px&quot;&gt;O&lt;/font&gt;" style="text;html=1;resizable=0;autosize=1;align=center;verticalAlign=middle;points=[];fillColor=none;strokeColor=none;rounded=0;" vertex="1" parent="1">
                    <mxGeometry x="170" y="150" width="50" height="30" as="geometry"/>
                </mxCell>
                <mxCell id="8" value="&lt;font style=&quot;font-size: 48px&quot;&gt;X&lt;/font&gt;" style="text;html=1;resizable=0;autosize=1;align=center;verticalAlign=middle;points=[];fillColor=none;strokeColor=none;rounded=0;" vertex="1" parent="1">
                    <mxGeometry x="170" y="270" width="50" height="30" as="geometry"/>
                </mxCell>
                <mxCell id="9" value="Player Turn: X" style="text;html=1;resizable=0;autosize=1;align=center;verticalAlign=middle;points=[];fillColor=none;strokeColor=none;rounded=0;fontSize=24;" vertex="1" parent="1">
                    <mxGeometry x="10" y="515" width="170" height="30" as="geometry"/>
                </mxCell>
                <mxCell id="10" value="Winner: X" style="text;html=1;resizable=0;autosize=1;align=center;verticalAlign=middle;points=[];fillColor=none;strokeColor=none;rounded=0;fontSize=24;" vertex="1" parent="1">
                    <mxGeometry x="10" y="570" width="120" height="30" as="geometry"/>
                </mxCell>
                <mxCell id="11" value="" style="ellipse;whiteSpace=wrap;html=1;fontSize=24;fillColor=none;fontColor=#ffffff;strokeColor=#2D7600;strokeWidth=4;" vertex="1" parent="1">
                    <mxGeometry x="10" y="100" width="140" height="130" as="geometry"/>
                </mxCell>
                <mxCell id="12" value="" style="ellipse;whiteSpace=wrap;html=1;fontSize=24;fillColor=none;fontColor=#ffffff;strokeColor=#2D7600;strokeWidth=4;" vertex="1" parent="1">
                    <mxGeometry x="130" y="100" width="140" height="130" as="geometry"/>
                </mxCell>
                <mxCell id="13" value="" style="ellipse;whiteSpace=wrap;html=1;fontSize=24;fillColor=none;fontColor=#ffffff;strokeColor=#2D7600;strokeWidth=4;" vertex="1" parent="1">
                    <mxGeometry x="270" y="90" width="140" height="130" as="geometry"/>
                </mxCell>
                <mxCell id="14" value="" style="ellipse;whiteSpace=wrap;html=1;fontSize=24;fillColor=none;fontColor=#ffffff;strokeColor=#2D7600;strokeWidth=4;" vertex="1" parent="1">
                    <mxGeometry x="265" y="220" width="140" height="130" as="geometry"/>
                </mxCell>
                <mxCell id="15" value="" style="ellipse;whiteSpace=wrap;html=1;fontSize=24;fillColor=none;fontColor=#ffffff;strokeColor=#2D7600;strokeWidth=4;" vertex="1" parent="1">
                    <mxGeometry x="130" y="215" width="140" height="130" as="geometry"/>
                </mxCell>
                <mxCell id="16" value="" style="ellipse;whiteSpace=wrap;html=1;fontSize=24;fillColor=none;fontColor=#ffffff;strokeColor=#2D7600;strokeWidth=4;" vertex="1" parent="1">
                    <mxGeometry y="215" width="140" height="130" as="geometry"/>
                </mxCell>
                <mxCell id="18" value="" style="ellipse;whiteSpace=wrap;html=1;fontSize=24;fillColor=none;fontColor=#ffffff;strokeColor=#2D7600;strokeWidth=4;" vertex="1" parent="1">
                    <mxGeometry x="10" y="330" width="140" height="130" as="geometry"/>
                </mxCell>
                <mxCell id="19" value="" style="ellipse;whiteSpace=wrap;html=1;fontSize=24;fillColor=none;fontColor=#ffffff;strokeColor=#2D7600;strokeWidth=4;" vertex="1" parent="1">
                    <mxGeometry x="140" y="340" width="140" height="130" as="geometry"/>
                </mxCell>
                <mxCell id="20" value="" style="ellipse;whiteSpace=wrap;html=1;fontSize=24;fillColor=none;fontColor=#ffffff;strokeColor=#2D7600;strokeWidth=4;" vertex="1" parent="1">
                    <mxGeometry x="270" y="345" width="140" height="130" as="geometry"/>
                </mxCell>
                <mxCell id="22" value="" style="ellipse;whiteSpace=wrap;html=1;fontSize=24;fillColor=none;fontColor=#ffffff;strokeColor=#0000FF;strokeWidth=4;" vertex="1" parent="1">
                    <mxGeometry x="-20" y="500" width="250" height="60" as="geometry"/>
                </mxCell>
                <mxCell id="23" value="" style="ellipse;whiteSpace=wrap;html=1;fontSize=24;fillColor=none;fontColor=#ffffff;strokeColor=#FFFF00;strokeWidth=4;" vertex="1" parent="1">
                    <mxGeometry x="-30" y="570" width="250" height="60" as="geometry"/>
                </mxCell>
                <mxCell id="30" value="Component: Game" style="text;html=1;resizable=0;autosize=1;align=center;verticalAlign=middle;points=[];fillColor=#a20025;strokeColor=#6F0000;rounded=0;fontSize=24;fontColor=#ffffff;" vertex="1" parent="1">
                    <mxGeometry x="-100" y="10" width="220" height="30" as="geometry"/>
                </mxCell>
                <mxCell id="31" value="Component: Board" style="text;html=1;resizable=0;autosize=1;align=center;verticalAlign=middle;points=[];fillColor=#FF8000;strokeColor=#6F0000;rounded=0;fontSize=24;fontColor=#ffffff;" vertex="1" parent="1">
                    <mxGeometry x="210" y="60" width="220" height="30" as="geometry"/>
                </mxCell>
                <mxCell id="32" value="Component: Square" style="text;html=1;resizable=0;autosize=1;align=center;verticalAlign=middle;points=[];fillColor=#33FF33;strokeColor=#000000;rounded=0;fontSize=24;fontColor=#000000;" vertex="1" parent="1">
                    <mxGeometry x="90" y="350" width="230" height="30" as="geometry"/>
                </mxCell>
            </root>
        </mxGraphModel>
    </diagram>
</mxfile>